<svg xmlns="http://www.w3.org/2000/svg" viewBox="0 0 512 512" role="img" aria-labelledby="title">
  <title id="title">Bus Tracking</title>
  <defs>
    <linearGradient id="bg" x1="0" y1="0" x2="1" y2="1">
      <stop offset="0" stop-color="#ff7a13"/><stop offset=".48" stop-color="#f05a17"/>
      <stop offset=".49" stop-color="#2083c9"/><stop offset="1" stop-color="#15559d"/>
    </linearGradient>
    <linearGradient id="gold" x1="0" y1="0" x2="1" y2="1">
      <stop offset="0" stop-color="#ffe36a"/><stop offset="1" stop-color="#e88a16"/>
    </linearGradient>
    <filter id="shadow" x="-30%" y="-30%" width="160%" height="160%">
      <feDropShadow dx="0" dy="12" stdDeviation="14" flood-color="#172554" flood-opacity=".25"/>
    </filter>
  </defs>
  <rect x="30" y="30" width="452" height="452" rx="108" fill="#fff" filter="url(#shadow)"/>
  <rect x="43" y="43" width="426" height="426" rx="96" fill="url(#bg)" stroke="#fff1c7" stroke-width="10"/>
  <g transform="translate(76 76) rotate(-9)" stroke="#17385f" stroke-width="7" stroke-linejoin="round">
    <rect width="86" height="131" rx="14" fill="#274d65"/>
    <rect x="9" y="12" width="68" height="100" rx="7" fill="#eaf5dc"/>
    <path d="M19 97l15-29 19 7 15-34M24 25l20 18 24-17" fill="none" stroke="#e0ac4d" stroke-width="7"/>
    <path d="M45 34c12 0 20 9 20 20 0 16-20 34-20 34S25 70 25 54c0-11 8-20 20-20z" fill="#f4772d"/>
    <circle cx="45" cy="54" r="7" fill="#fff"/>
  </g>
  <g transform="translate(354 84) rotate(4)" stroke="#17385f" stroke-width="7" stroke-linejoin="round">
    <rect width="88" height="100" rx="10" fill="#d8b54d"/>
    <rect x="10" y="10" width="68" height="57" rx="5" fill="#315a71"/>
    <path d="M44 22v22l16 8" fill="none" stroke="#ffd359" stroke-width="6" stroke-linecap="round"/>
    <text x="44" y="88" fill="#17385f" stroke="none" font-family="Arial" font-size="18" font-weight="800" text-anchor="middle">15 min</text>
  </g>
  <g transform="translate(168 96)" stroke="#17385f" stroke-width="7">
    <circle cx="88" cy="84" r="76" fill="#f5e5bd"/>
    <circle cx="88" cy="84" r="61" fill="#fff5d7"/>
    <path d="M88 24v120M28 84h120M45 41l86 86M131 41l-86 86" opacity=".45"/>
    <path d="M88 38l16 39 37 7-37 8-16 38-9-38-43-8 43-7z" fill="#2d92c9"/>
    <circle cx="88" cy="84" r="10" fill="#f59b24"/>
    <text x="88" y="19" fill="#17385f" stroke="none" font-family="Arial" font-size="16" font-weight="800" text-anchor="middle">N</text>
  </g>
  <g transform="translate(104 221)" stroke="#17385f" stroke-width="8" stroke-linejoin="round">
    <path d="M11 31h214c31 0 54 23 54 54v50H0V45c0-8 4-14 11-14z" fill="#f2a32c"/>
    <path d="M176 31h55c26 0 48 23 48 52h-103z" fill="#ffbf42"/>
    <path d="M185 42h39c20 0 34 13 39 30h-78z" fill="#bce0e8"/>
    <path d="M25 48h28v50H25zM62 48h28v50H62zM99 48h28v50H99zM136 48h28v50h-28z" fill="#77c7df"/>
    <path d="M0 108h279M170 31v104" fill="none"/>
    <circle cx="51" cy="137" r="25" fill="#314e5e"/><circle cx="51" cy="137" r="11" fill="#cbd4d4"/>
    <circle cx="229" cy="137" r="25" fill="#314e5e"/><circle cx="229" cy="137" r="11" fill="#cbd4d4"/>
    <path d="M279 94h13v22h-13" fill="#ffd55c"/>
  </g>
  <g transform="translate(83 360)" stroke="#17385f" stroke-width="7" stroke-linejoin="round">
    <path d="M0 10l173-20 171 20-24 38 13 41-161-16L12 89l13-41z" fill="url(#gold)"/>
    <text x="172" y="43" fill="#17385f" stroke="none" font-family="Arial" font-size="34" font-weight="800" text-anchor="middle">BUS TRACKING</text>
    <text x="172" y="69" fill="#17385f" stroke="none" font-family="Arial" font-size="18" font-weight="700" text-anchor="middle">Live Location</text>
  </g>
  <g fill="none" stroke="#d9f3ff" stroke-width="8" stroke-linecap="round">
    <path d="M222 90c19-20 49-20 68 0M234 102c13-12 31-12 44 0"/>
  </g>
  <g fill="#2b9ad3" stroke="#17385f" stroke-width="5">
    <path d="M90 274c12 0 20 9 20 20 0 16-20 35-20 35s-20-19-20-35c0-11 8-20 20-20z"/>
    <path d="M423 274c12 0 20 9 20 20 0 16-20 35-20 35s-20-19-20-35c0-11 8-20 20-20z" fill="#f18a27"/>
  </g>
</svg>
